<svg width="38" height="38" viewBox="0 0 38 38" fill="none" xmlns="http://www.w3.org/2000/svg">
<g id="Content copy" filter="url(#filter0_d_38_742)">
<g clip-path="url(#clip0_38_742)">
<rect x="4" width="30" height="30" rx="4" fill="white"/>
<path id="Vector" d="M24 1.25H9C7.625 1.25 6.5 2.375 6.5 3.75V21.25H9V3.75H24V1.25ZM27.75 6.25H14C12.625 6.25 11.5 7.375 11.5 8.75V26.25C11.5 27.625 12.625 28.75 14 28.75H27.75C29.125 28.75 30.25 27.625 30.25 26.25V8.75C30.25 7.375 29.125 6.25 27.75 6.25ZM27.75 26.25H14V8.75H27.75V26.25Z" fill="black"/>
</g>
</g>
<defs>
<filter id="filter0_d_38_742" x="0" y="0" width="38" height="38" filterUnits="userSpaceOnUse" color-interpolation-filters="sRGB">
<feFlood flood-opacity="0" result="BackgroundImageFix"/>
<feColorMatrix in="SourceAlpha" type="matrix" values="0 0 0 0 0 0 0 0 0 0 0 0 0 0 0 0 0 0 127 0" result="hardAlpha"/>
<feOffset dy="4"/>
<feGaussianBlur stdDeviation="2"/>
<feComposite in2="hardAlpha" operator="out"/>
<feColorMatrix type="matrix" values="0 0 0 0 0 0 0 0 0 0 0 0 0 0 0 0 0 0 0.25 0"/>
<feBlend mode="normal" in2="BackgroundImageFix" result="effect1_dropShadow_38_742"/>
<feBlend mode="normal" in="SourceGraphic" in2="effect1_dropShadow_38_742" result="shape"/>
</filter>
<clipPath id="clip0_38_742">
<rect x="4" width="30" height="30" rx="4" fill="white"/>
</clipPath>
</defs>
</svg>
