<svg width="32" height="32" viewBox="0 0 32 32" fill="none" xmlns="http://www.w3.org/2000/svg">
<path d="M14.1337 18.4L11.267 15.5333C11.0225 15.2889 10.7114 15.1667 10.3337 15.1667C9.95588 15.1667 9.64477 15.2889 9.40033 15.5333C9.15588 15.7778 9.03366 16.0889 9.03366 16.4667C9.03366 16.8444 9.15588 17.1556 9.40033 17.4L13.2003 21.2C13.467 21.4667 13.7781 21.6 14.1337 21.6C14.4892 21.6 14.8003 21.4667 15.067 21.2L22.6003 13.6667C22.8448 13.4222 22.967 13.1111 22.967 12.7333C22.967 12.3556 22.8448 12.0444 22.6003 11.8C22.3559 11.5556 22.0448 11.4333 21.667 11.4333C21.2892 11.4333 20.9781 11.5556 20.7337 11.8L14.1337 18.4ZM16.0003 29.3333C14.1559 29.3333 12.4225 28.9831 10.8003 28.2827C9.1781 27.5822 7.76699 26.6324 6.56699 25.4333C5.36699 24.2333 4.41721 22.8222 3.71766 21.2C3.0181 19.5778 2.66788 17.8444 2.66699 16C2.66699 14.1556 3.01721 12.4222 3.71766 10.8C4.4181 9.17778 5.36788 7.76666 6.56699 6.56666C7.76699 5.36666 9.1781 4.41689 10.8003 3.71733C12.4225 3.01778 14.1559 2.66755 16.0003 2.66666C17.8448 2.66666 19.5781 3.01689 21.2003 3.71733C22.8225 4.41778 24.2337 5.36755 25.4337 6.56666C26.6337 7.76666 27.5839 9.17778 28.2843 10.8C28.9848 12.4222 29.3345 14.1556 29.3337 16C29.3337 17.8444 28.9834 19.5778 28.283 21.2C27.5825 22.8222 26.6328 24.2333 25.4337 25.4333C24.2337 26.6333 22.8225 27.5836 21.2003 28.284C19.5781 28.9844 17.8448 29.3342 16.0003 29.3333Z" fill="#2B5807"/>
</svg>
